<?xml version="1.0" standalone="no"?>
<!DOCTYPE svg PUBLIC "-//W3C//DTD SVG 20010904//EN"
 "http://www.w3.org/TR/2001/REC-SVG-20010904/DTD/svg10.dtd">
<svg version="1.0" xmlns="http://www.w3.org/2000/svg"
 width="960.000000pt" height="960.000000pt" viewBox="0 0 960.000000 960.000000"
 preserveAspectRatio="xMidYMid meet">
<metadata>
Created by potrace 1.14, written by Peter Selinger 2001-2017
</metadata>
<g transform="translate(0.000000,960.000000) scale(0.100000,-0.100000)"
fill="#000000" stroke="none">
<path d="M2207 7934 c-1 -1 -36 -5 -77 -9 -41 -3 -88 -8 -105 -9 -41 -4 -135
-17 -160 -22 -11 -3 -36 -7 -55 -10 -19 -3 -80 -14 -135 -25 -55 -10 -110 -21
-123 -24 -13 -2 -31 -6 -40 -9 -9 -3 -30 -8 -47 -11 -42 -7 -286 -69 -375 -95
-41 -12 -79 -23 -85 -24 -5 -2 -17 -6 -25 -9 -8 -3 -51 -18 -95 -33 -111 -38
-206 -76 -300 -120 -44 -20 -82 -38 -85 -38 -3 -1 -11 -5 -19 -10 -8 -5 -38
-22 -67 -38 -134 -71 -286 -189 -346 -268 -62 -83 -68 -102 -68 -226 0 -101 3
-120 24 -162 48 -95 119 -149 321 -246 66 -32 137 -69 157 -83 61 -41 101
-112 114 -203 14 -95 18 -410 18 -1295 -1 -1081 -7 -1505 -28 -1818 -8 -108
-13 -159 -31 -287 -2 -14 -6 -47 -9 -75 -6 -43 -17 -101 -40 -215 -3 -14 -15
-59 -26 -100 -43 -154 -48 -207 -26 -264 33 -86 98 -111 286 -110 143 1 152 3
344 69 121 42 166 53 199 49 33 -3 87 -30 227 -114 101 -60 189 -110 196 -110
7 0 14 -4 16 -8 4 -10 207 -109 303 -147 98 -38 106 -42 140 -54 36 -12 200
-58 235 -65 14 -2 50 -10 80 -16 30 -6 73 -13 95 -16 22 -2 51 -7 65 -9 162
-28 662 -27 792 1 13 3 39 7 58 9 252 29 597 150 875 308 74 41 290 191 315
217 3 3 32 27 65 54 105 87 314 301 380 391 17 22 33 42 36 45 3 3 37 52 76
110 90 135 147 238 203 365 12 28 27 64 35 80 13 31 82 226 83 235 0 3 5 24
11 46 14 53 50 219 56 259 3 17 7 46 11 65 3 19 7 51 9 70 2 19 7 69 11 110 9
95 10 444 1 530 -29 275 -98 516 -213 743 -19 37 -34 70 -34 73 0 3 10 2 21
-1 12 -4 155 -7 318 -8 163 0 311 -4 329 -9 22 -6 36 -18 44 -36 7 -19 11
-375 13 -1177 1 -632 5 -1179 9 -1215 22 -207 95 -434 193 -595 77 -127 228
-292 351 -384 117 -88 351 -208 440 -226 9 -2 51 -12 92 -24 41 -11 89 -22
105 -25 17 -3 41 -7 55 -10 148 -28 575 -29 735 -1 17 3 55 10 85 16 30 6 69
13 85 15 17 3 37 7 45 10 8 3 26 8 40 11 14 2 61 16 105 31 44 14 85 27 90 28
27 5 236 94 245 104 3 3 27 15 53 28 138 65 362 227 487 352 93 93 115 120
146 177 13 25 29 52 35 59 5 7 11 22 12 33 1 12 4 21 7 21 4 0 7 6 8 13 0 6 4
23 8 37 4 14 8 67 9 118 3 102 -16 176 -69 267 -38 64 -111 133 -155 145 -72
20 -104 12 -239 -55 -71 -36 -135 -65 -141 -65 -6 0 -11 -4 -11 -8 0 -5 -6 -9
-12 -9 -7 -1 -39 -10 -70 -21 -32 -12 -58 -19 -58 -17 0 3 -12 0 -27 -6 -49
-18 -174 -12 -239 12 -73 27 -106 49 -166 111 -45 47 -105 139 -113 175 -2 10
-11 36 -19 58 -8 22 -17 56 -21 75 -12 56 -14 1756 -2 1802 13 50 56 93 104
103 21 5 250 9 508 10 259 1 486 5 505 9 86 20 132 59 161 135 28 76 32 122
32 376 0 216 -5 302 -23 334 -4 9 -8 21 -9 26 0 6 -12 22 -25 36 -48 50 -72
52 -616 55 -278 1 -516 5 -530 8 -53 12 -78 28 -95 64 -18 34 -19 69 -22 417
-3 428 -4 465 -26 517 -17 41 -74 76 -119 74 -16 -1 -28 1 -28 4 0 7 -396 4
-455 -5 -66 -9 -118 -33 -209 -94 -41 -27 -77 -47 -80 -44 -3 4 -6 2 -6 -3 0
-6 -19 -21 -42 -34 -24 -13 -64 -39 -90 -57 -26 -18 -50 -33 -53 -33 -3 0 -18
-8 -33 -19 -15 -10 -52 -34 -82 -53 -30 -19 -113 -71 -183 -116 -71 -45 -132
-82 -138 -82 -5 0 -9 -4 -9 -9 0 -5 -8 -11 -17 -14 -10 -4 -63 -36 -118 -72
-55 -36 -111 -71 -125 -78 -14 -6 -27 -14 -30 -17 -3 -3 -23 -17 -45 -30 -22
-13 -42 -27 -45 -30 -3 -4 -24 -18 -47 -31 -36 -20 -161 -99 -473 -297 -30
-19 -71 -45 -90 -57 -119 -75 -160 -101 -198 -127 -24 -15 -46 -28 -50 -28
-18 0 -77 -68 -95 -109 -18 -40 -21 -68 -23 -216 -1 -93 -2 -172 -3 -175 -1
-3 -11 11 -24 31 -42 69 -190 230 -294 321 -58 50 -184 140 -256 182 -64 37
-250 124 -281 130 -33 7 -74 19 -96 27 -40 15 -138 32 -248 44 -99 11 -362 4
-412 -10 -8 -2 -31 -7 -50 -10 -19 -3 -60 -11 -90 -17 -30 -6 -57 -12 -60 -13
-3 0 -11 -4 -17 -8 -7 -5 -13 -5 -13 -1 0 3 -7 1 -15 -6 -8 -7 -15 -10 -15 -7
0 3 -24 -4 -52 -15 -29 -10 -57 -21 -63 -22 -30 -9 -144 -63 -245 -117 -42
-23 -223 -146 -252 -171 -15 -14 -39 -33 -54 -44 -14 -10 -31 -23 -38 -29 -6
-5 -35 -27 -65 -47 -45 -31 -57 -35 -76 -26 -13 6 -27 20 -32 32 -10 22 -10
155 2 481 3 110 8 254 10 320 2 66 4 120 5 120 0 0 3 63 5 140 2 77 7 223 10
325 17 465 18 582 10 620 -4 14 -7 30 -9 37 -12 60 -76 118 -147 134 -33 8
-254 10 -262 3z m903 -3035 c49 -10 129 -46 184 -82 40 -25 126 -119 169 -184
40 -61 110 -193 116 -218 9 -43 15 -61 21 -70 4 -5 11 -23 15 -40 5 -16 9 -34
11 -40 15 -53 40 -175 49 -240 3 -23 7 -51 10 -63 17 -90 25 -504 12 -652 -46
-550 -275 -852 -647 -853 -229 -1 -349 105 -396 352 -18 93 -22 126 -40 326
-33 362 -38 1242 -9 1425 21 130 99 264 166 285 10 4 19 10 19 14 0 4 19 14
43 21 23 7 49 15 57 18 8 3 40 7 70 9 30 3 56 6 58 8 3 3 10 2 92 -16z"/>
</g>
</svg>
